<?xml version="1.0" encoding="utf-8"?>
<!-- Generator: Adobe Illustrator 27.1.0, SVG Export Plug-In . SVG Version: 6.00 Build 0)  -->
<svg version="1.1" id="Camada_1" xmlns="http://www.w3.org/2000/svg" xmlns:xlink="http://www.w3.org/1999/xlink" x="0px" y="0px"
	 viewBox="0 0 1280 1280" style="enable-background:new 0 0 1280 1280;" xml:space="preserve">
<style type="text/css">
	.st0{fill:#FFFFFF;}
	.st1{fill:#6750A4;}
	.st2{fill:#434C54;}
</style>
<g id="CUSTOM-Group_00000145056440276183512500000010428774716782230926_">
	<path class="st0" d="M565.7,526.1c0,20.8-13.1,37.6-29.3,37.6h-82c-16.2,0-29.3-16.8-29.3-37.6V330.5c0-20.8,13.1-37.6,29.3-37.6
		h82c16.2,0,29.3,16.9,29.3,37.6V526.1z"/>
	<g>
		<path class="st1" d="M581.4,325.9c0,10.8-8.7,19.5-19.5,19.5H429c-10.8,0-19.5-8.7-19.5-19.5v-29.3c0-10.8,8.7-19.5,19.5-19.5
			h132.8c10.8,0,19.5,8.7,19.5,19.5V325.9z"/>
		<path class="st0" d="M497.2,1067.7c-41.8,0-75.8-33.9-75.8-75.8V613.2c0-21.3,9-41.6,24.7-55.9l265.5-242.4
			c14.5-13.2,32.8-19.8,51.1-19.8c18.3,0,36.6,6.6,51.1,19.8l265.5,242.4c15.7,14.4,24.7,34.7,24.7,55.9V992
			c0,41.8-33.9,75.8-75.8,75.8H497.2z"/>
		<path class="st0" d="M1067.4,626.2V992c0,41.8-33.9,75.8-75.8,75.8h36.5c41.8,0,75.7-33.9,75.7-75.8V626.2H1067.4z"/>
	</g>
	<path class="st0" d="M478.3,744.9c0-21.3,9-41.6,24.7-55.9l265.5-242.4c14.5-13.2,32.8-19.8,51.1-19.8c18.3,0,36.6,6.6,51.1,19.8
		l233.2,213v-46.3c0-21.3-9-41.6-24.7-55.9L813.7,314.9c-14.5-13.2-32.8-19.8-51.1-19.8s-36.6,6.6-51.1,19.8L446.1,557.3
		c-15.7,14.3-24.7,34.7-24.7,55.9V992c0,35.3,24.2,65,56.9,73.4V744.9z"/>
	<path class="st1" d="M1120.8,683.1c-12.4,0-24.3-4.6-33.5-13L762.7,373.6L438,670.1c-9.1,8.3-21.1,13-33.5,13h-49.1
		c-20.5,0-38.9-12.6-46.3-31.7c-7.4-19.1-2.3-40.8,12.8-54.6L729.2,225c9.5-8.6,21.5-13,33.4-13c12,0,24,4.3,33.5,13l407.2,371.8
		c15.1,13.8,20.2,35.5,12.8,54.6c-7.4,19.1-25.8,31.7-46.3,31.7H1120.8z"/>
	<path class="st1" d="M1203.3,596.8L803.5,231.8c-7.6,2-14.8,5.8-20.9,11.4l-11,10.1l375.3,342.7c15.1,13.8,20.2,35.5,12.8,54.6
		c-7.4,19.1-25.8,31.7-46.3,31.7h-2.2c3.2,0.6,6.4,1,9.7,1h49.1c20.5,0,38.9-12.6,46.3-31.7C1223.6,632.3,1218.5,610.6,1203.3,596.8
		z"/>
	<path class="st2" d="M1213.1,586.2L805.8,214.4c-11.8-10.8-27.2-16.7-43.2-16.7c-16,0-31.4,5.9-43.2,16.7l-123.8,113
		c0-0.5,0.1-1,0.1-1.5v-29.3c0-18.7-15.2-34-34-34H429c-18.7,0-34,15.2-34,34v29.3c0,12,6.2,22.5,15.6,28.5v141.9l-98.4,89.9
		c-19.7,18-26.2,45.6-16.5,70.5c9.5,24.5,33.5,40.9,59.7,40.9h49.1c0.8,0,1.7,0,2.5-0.1V992c0,49.7,40.5,90.2,90.2,90.2h531
		c49.7,0,90.2-40.4,90.2-90.2V697.5c0.8,0,1.7,0.1,2.5,0.1h49.1c26.2,0,50.2-16.4,59.7-40.9C1239.2,631.8,1232.7,604.1,1213.1,586.2
		z M439.5,359.8h111.8v8.1L439.5,470V359.8z M423.9,296.6c0-2.8,2.3-5.1,5.1-5.1h132.8c2.8,0,5.1,2.3,5.1,5.1v29.3
		c0,2.8-2.3,5.1-5.1,5.1H429c-2.8,0-5.1-2.3-5.1-5.1V296.6z M1089.5,992c0,33.8-27.5,61.3-61.3,61.3h-531
		c-33.8,0-61.3-27.5-61.3-61.3V689.3c4.2-2.4,8.2-5.2,11.8-8.6l315-287.6l315,287.6c3.6,3.3,7.6,6.2,11.8,8.6V992z M1202.7,646.2
		c-5.2,13.4-18.4,22.5-32.8,22.5h-49.1c-8.8,0-17.2-3.3-23.7-9.2L762.7,354.1L428.2,659.5c-6.5,5.9-14.9,9.2-23.7,9.2h-49.1
		c-14.4,0-27.6-9-32.8-22.5c-5.3-13.6-1.7-28.8,9.1-38.7l407.2-371.8c6.5-5.9,14.9-9.2,23.7-9.2c8.8,0,17.2,3.3,23.7,9.2
		l407.2,371.8C1204.4,617.3,1208,632.5,1202.7,646.2z"/>
</g>
<g id="CUSTOM-Group">
	<path class="st0" d="M314.3,526.1c0,20.8-13.1,37.6-29.3,37.6h-82c-16.2,0-29.3-16.8-29.3-37.6V330.5c0-20.8,13.1-37.6,29.3-37.6
		h82c16.2,0,29.3,16.9,29.3,37.6V526.1z"/>
	<g>
		<path class="st1" d="M329.9,325.9c0,10.8-8.7,19.5-19.5,19.5H177.6c-10.8,0-19.5-8.7-19.5-19.5v-29.3c0-10.8,8.7-19.5,19.5-19.5
			h132.8c10.8,0,19.5,8.7,19.5,19.5V325.9z"/>
		<path class="st1" d="M245.7,1067.7c-41.8,0-75.8-33.9-75.8-75.8V613.2c0-21.3,9-41.6,24.7-55.9l265.5-242.4
			c14.5-13.2,32.8-19.8,51.1-19.8c18.3,0,36.6,6.6,51.1,19.8l265.5,242.4c15.7,14.4,24.7,34.7,24.7,55.9V992
			c0,41.8-33.9,75.8-75.8,75.8H245.7z"/>
		<path class="st1" d="M815.9,626.2V992c0,41.8-33.9,75.8-75.8,75.8h36.5c41.8,0,75.7-33.9,75.7-75.8V626.2H815.9z"/>
	</g>
	<path class="st1" d="M226.9,744.9c0-21.3,9-41.6,24.7-55.9l265.5-242.4c14.5-13.2,32.8-19.8,51.1-19.8c18.3,0,36.6,6.6,51.1,19.8
		l233.2,213v-46.3c0-21.3-9-41.6-24.7-55.9L562.3,314.9c-14.5-13.2-32.8-19.8-51.1-19.8c-18.3,0-36.6,6.6-51.1,19.8L194.7,557.3
		c-15.7,14.3-24.7,34.7-24.7,55.9V992c0,35.3,24.2,65,56.9,73.4V744.9z"/>
	<path class="st0" d="M869.4,683.1c-12.4,0-24.3-4.6-33.5-13L511.2,373.6L186.5,670.1c-9.1,8.3-21.1,13-33.5,13H104
		c-20.5,0-38.9-12.6-46.3-31.7c-7.4-19.1-2.3-40.8,12.8-54.6L477.8,225c9.5-8.6,21.5-13,33.4-13c12,0,24,4.3,33.5,13l407.2,371.8
		c15.1,13.8,20.2,35.5,12.8,54.6c-7.4,19.1-25.8,31.7-46.3,31.7H869.4z"/>
	<path class="st0" d="M951.9,596.8L552.1,231.8c-7.6,2-14.8,5.8-20.9,11.4l-11,10.1l375.3,342.7c15.1,13.8,20.2,35.5,12.8,54.6
		c-7.4,19.1-25.8,31.7-46.3,31.7h-2.2c3.2,0.6,6.4,1,9.7,1h49.1c20.5,0,38.9-12.6,46.3-31.7C972.1,632.3,967,610.6,951.9,596.8z"/>
	<path class="st2" d="M961.6,586.2L554.4,214.4c-11.8-10.8-27.2-16.7-43.2-16.7c-16,0-31.4,5.9-43.2,16.7l-123.8,113
		c0-0.5,0.1-1,0.1-1.5v-29.3c0-18.7-15.2-34-34-34H177.6c-18.7,0-34,15.2-34,34v29.3c0,12,6.2,22.5,15.6,28.5v141.9l-98.4,89.9
		c-19.7,18-26.2,45.6-16.5,70.5c9.5,24.5,33.5,40.9,59.7,40.9h49.1c0.8,0,1.7,0,2.5-0.1V992c0,49.7,40.5,90.2,90.2,90.2h531
		c49.7,0,90.2-40.4,90.2-90.2V697.5c0.8,0,1.7,0.1,2.5,0.1h49.1c26.2,0,50.2-16.4,59.7-40.9C987.8,631.8,981.3,604.1,961.6,586.2z
		 M188.1,359.8h111.8v8.1L188.1,470V359.8z M172.5,296.6c0-2.8,2.3-5.1,5.1-5.1h132.8c2.8,0,5.1,2.3,5.1,5.1v29.3
		c0,2.8-2.3,5.1-5.1,5.1H177.6c-2.8,0-5.1-2.3-5.1-5.1V296.6z M838,992c0,33.8-27.5,61.3-61.3,61.3h-531
		c-33.8,0-61.3-27.5-61.3-61.3V689.3c4.2-2.4,8.2-5.2,11.8-8.6l315-287.6l315,287.6c3.6,3.3,7.6,6.2,11.8,8.6V992z M951.3,646.2
		c-5.2,13.4-18.4,22.5-32.8,22.5h-49.1c-8.8,0-17.2-3.3-23.7-9.2L511.2,354.1L176.8,659.5c-6.5,5.9-14.9,9.2-23.7,9.2H104
		c-14.4,0-27.6-9-32.8-22.5c-5.3-13.6-1.7-28.8,9.1-38.7l407.2-371.8c6.5-5.9,14.9-9.2,23.7-9.2c8.8,0,17.2,3.3,23.7,9.2
		l407.2,371.8C953,617.3,956.6,632.5,951.3,646.2z"/>
</g>
</svg>
